{"title":"The Truth Behind The Crystal Skull 720p","uid":7028281,"size":1203230431,"categoryP":"video","categoryS":"hd___tv_shows","magnet":"?xt=urn:btih:9cb01e1d611348e5c7b2252c498ecbcd9264f1f1&amp;dn=The+Truth+Behind+The+Crystal+Skull+720p&amp;tr=udp%3A%2F%2Ftracker.openbittorrent.com%3A80&amp;tr=udp%3A%2F%2Fopen.demonii.com%3A1337&amp;tr=udp%3A%2F%2Ftracker.coppersurfer.tk%3A6969&amp;tr=udp%3A%2F%2Fexodus.desync.com%3A6969","seeders":0,"leechers":1,"uploader":"mafia01","files":1,"time":1329144314,"description":"General\nComplete name : X/The.Truth Behind.The Crystal.Skull.720p.WMW.mkv\nFormat : Matroska\nFormat version : Version 2\nFile size : 1.12 GiB\nDuration : 44mn 55s\nOverall bit rate : 3 571 Kbps\nWriting application : HandBrake 0.9.5\nWriting library : libmkv 0.6.4.1\n\nVideo\nID : 1\nFormat : AVC\nFormat/Info : Advanced Video Codec\nFormat profile : &lt;a class=&quot;__cf_email__&quot; href=&quot;/cdn-cgi/l/email-protection&quot; data-cfemail=&quot;6a22030d022a26594458&quot;&gt;[email&amp;#160;protected]&lt;/a&gt;&lt;script cf-hash='f9e31' type=&quot;text/javascript&quot;&gt;\n/* &lt;![CDATA[ */!function(){try{var t=&quot;currentScript&quot;in document?document.currentScript:function(){for(var t=document.getElementsByTagName(&quot;script&quot;),e=t.length;e--;)if(t[e].getAttribute(&quot;cf-hash&quot;))return t[e]}();if(t&amp;&amp;t.previousSibling){var e,r,n,i,c=t.previousSibling,a=c.getAttribute(&quot;data-cfemail&quot;);if(a){for(e=&quot;&quot;,r=parseInt(a.substr(0,2),16),n=2;a.length-n;n+=2)i=parseInt(a.substr(n,2),16)^r,e+=String.fromCharCode(i);e=document.createTextNode(e),c.parentNode.replaceChild(e,c)}}}catch(u){}}();/* ]]&gt; */&lt;/script&gt;\nFormat settings, CABAC : Yes\nFormat settings, ReFrames : 4 frames\nCodec ID : V_MPEG4/ISO/AVC\nDuration : 44mn 55s\nBit rate : 3 179 Kbps\nWidth : 1 280 pixels\nHeight : 720 pixels\nDisplay aspect ratio : 16:9\nFrame rate mode : Variable\nFrame rate : 52.290 fps\nColor space : YUV\nChroma subsampling : 4:2:0\nBit depth : 8 bits\nScan type : Progressive\nBits/(Pixel*Frame) : 0.066\nStream size : 1 001 MiB (87%)\nWriting library : x264 core 112\n\nLanguage : English\nDefault : Yes\nForced : No\n\nAudio\nID : 2\nFormat : AC-3\nFormat/Info : Audio Coding 3\nMode extension : CM (complete main)\nCodec ID : A_AC3\nDuration : 44mn 55s\nBit rate mode : Constant\nBit rate : 384 Kbps\nChannel(s) : 6 channels\nChannel positions : Front: L C R, Side: L R, LFE\nSampling rate : 48.0 KHz\nBit depth : 16 bits\nCompression mode : Lossy\nStream size : 123 MiB (11%)\nDefault : Yes\nForced : No","torrent":{"xt":"urn:btih:9cb01e1d611348e5c7b2252c498ecbcd9264f1f1","amp;dn":"The+Truth+Behind+The+Crystal+Skull+720p","amp;tr":["udp%3A%2F%2Ftracker.openbittorrent.com%3A80","udp%3A%2F%2Fopen.demonii.com%3A1337","udp%3A%2F%2Ftracker.coppersurfer.tk%3A6969","udp%3A%2F%2Fexodus.desync.com%3A6969"],"infoHash":"9cb01e1d611348e5c7b2252c498ecbcd9264f1f1","infoHashBuffer":{"type":"Buffer","data":[156,176,30,29,97,19,72,229,199,178,37,44,73,142,203,205,146,100,241,241]},"announce":[],"urlList":[]}}